{"title":"Crocodile Dundee 1-3","uid":9039815,"size":2678040784,"categoryP":"video","categoryS":"movies","magnet":"?xt=urn:btih:bc0660a83e82f440ef5a0c7efe3bbcdffa8ec3b4&amp;dn=Crocodile+Dundee+1-3&amp;tr=udp%3A%2F%2Ftracker.openbittorrent.com%3A80&amp;tr=udp%3A%2F%2Fopen.demonii.com%3A1337&amp;tr=udp%3A%2F%2Ftracker.coppersurfer.tk%3A6969&amp;tr=udp%3A%2F%2Fexodus.desync.com%3A6969","seeders":1,"leechers":0,"uploader":"GzUs42o0","files":6,"time":1381599605,"description":"Crocodile Dundee 1986\n   An American reporter goes to the Australian outback to meet an eccentric crocodile poacher and invites him to New York City.\n\nI:MoviesMy RipsActionCrocodile Dundee 1-3CROCODILEDUNDEE_1CROCODILE_DUNDEE.mp4\n   General\n      Complete name : I:MoviesMy RipsActionCrocodile Dundee 1-3CROCODILEDUNDEE_1CROCODILE_DUNDEE.mp4\n      Format : MPEG-4\n      Format profile : Base Media\n      Codec ID : isom\n      File size : 801 MiB\n      Duration : 1h 37mn\n      Overall bit rate : 1 148 Kbps\n      Movie name : CROCODILE_DUNDEE\n      Album : CROCODILEDUNDEE_1\n      Writing application : Lavf52.78.4\n   Video #1\n      ID : 1\n      Format : AVC\n      Format/Info : Advanced Video Codec\n      Format profile : &lt;a class=&quot;__cf_email__&quot; href=&quot;/cdn-cgi/l/email-protection&quot; data-cfemail=&quot;793418101739354a5749&quot;&gt;[email&amp;#160;protected]&lt;/a&gt;&lt;script cf-hash='f9e31' type=&quot;text/javascript&quot;&gt;\n/* &lt;![CDATA[ */!function(){try{var t=&quot;currentScript&quot;in document?document.currentScript:function(){for(var t=document.getElementsByTagName(&quot;script&quot;),e=t.length;e--;)if(t[e].getAttribute(&quot;cf-hash&quot;))return t[e]}();if(t&amp;&amp;t.previousSibling){var e,r,n,i,c=t.previousSibling,a=c.getAttribute(&quot;data-cfemail&quot;);if(a){for(e=&quot;&quot;,r=parseInt(a.substr(0,2),16),n=2;a.length-n;n+=2)i=parseInt(a.substr(n,2),16)^r,e+=String.fromCharCode(i);e=document.createTextNode(e),c.parentNode.replaceChild(e,c)}}}catch(u){}}();/* ]]&gt; */&lt;/script&gt;\n      Format settings, CABAC : Yes\n      Format settings, ReFrames : 1 frame\n      Codec ID : avc1\n      Codec ID/Info : Advanced Video Coding\n      Duration : 1h 37mn\n      Bit rate mode : Variable\n      Bit rate : 825 Kbps\n      Width : 720 pixels\n      Height : 310 pixels\n      Display aspect ratio : 2.35:1\n      Frame rate mode : Constant\n      Frame rate : 23.976 fps\n      Resolution : 24 bits\n      Colorimetry : 4:2:0\n      Scan type : Progressive\n      Bits/(Pixel*Frame) : 0.154\n      Stream size : 576 MiB (72%)\n      Writing library : x264 core\n      colour_primaries : BT.601-6 525, BT.1358 525, BT.1700 NTSC, SMPTE 170M\n      transfer_characteristics : BT.709-5, BT.1361\n      matrix_coefficients : BT.601-6 525, BT.1358 525, BT.1700 NTSC, SMPTE 170M\n   Audio #2\n      ID : 2\n      Format : MPEG Audio\n      Format version : Version 1\n      Format profile : Layer 3\n      Codec ID : 6B\n      Duration : 1h 37mn\n      Bit rate mode : Constant\n      Bit rate : 320 Kbps\n      Channel(s) : 2 channels\n      Sampling rate : 48.0 KHz\n      Resolution : 16 bits\n      Stream size : 223 MiB (28%)\n      Writing library : LAME3.98.4\n\nCrocodile Dundee II 1988\n   Australian outback expert protects his New York love from gangsters who've followed her down under.\n\nI:MoviesMy RipsActionCrocodile Dundee 1-3CROCODILE2CROCODILE_DUNDEE_2.mp4\n   General\n      Complete name : I:MoviesMy RipsActionCrocodile Dundee 1-3CROCODILE2CROCODILE_DUNDEE_2.mp4\n      Format : MPEG-4\n      Format profile : Base Media\n      Codec ID : isom\n      File size : 951 MiB\n      Duration : 1h 51mn\n      Overall bit rate : 1 192 Kbps\n      Movie name : CROCODILE_DUNDEE_2\n      Album : CROCODILE2\n      Writing application : Lavf52.78.4\n   Video #1\n      ID : 1\n      Format : AVC\n      Format/Info : Advanced Video Codec\n      Format profile : &lt;a class=&quot;__cf_email__&quot; href=&quot;/cdn-cgi/l/email-protection&quot; data-cfemail=&quot;d895b9b1b69894ebf6e8&quot;&gt;[email&amp;#160;protected]&lt;/a&gt;&lt;script cf-hash='f9e31' type=&quot;text/javascript&quot;&gt;\n/* &lt;![CDATA[ */!function(){try{var t=&quot;currentScript&quot;in document?document.currentScript:function(){for(var t=document.getElementsByTagName(&quot;script&quot;),e=t.length;e--;)if(t[e].getAttribute(&quot;cf-hash&quot;))return t[e]}();if(t&amp;&amp;t.previousSibling){var e,r,n,i,c=t.previousSibling,a=c.getAttribute(&quot;data-cfemail&quot;);if(a){for(e=&quot;&quot;,r=parseInt(a.substr(0,2),16),n=2;a.length-n;n+=2)i=parseInt(a.substr(n,2),16)^r,e+=String.fromCharCode(i);e=document.createTextNode(e),c.parentNode.replaceChild(e,c)}}}catch(u){}}();/* ]]&gt; */&lt;/script&gt;\n      Format settings, CABAC : Yes\n      Format settings, ReFrames : 1 frame\n      Codec ID : avc1\n      Codec ID/Info : Advanced Video Coding\n      Duration : 1h 51mn\n      Bit rate mode : Variable\n      Bit rate : 869 Kbps\n      Width : 720 pixels\n      Height : 310 pixels\n      Display aspect ratio : 2.35:1\n      Frame rate mode : Constant\n      Frame rate : 23.976 fps\n      Resolution : 24 bits\n      Colorimetry : 4:2:0\n      Scan type : Progressive\n      Bits/(Pixel*Frame) : 0.162\n      Stream size : 694 MiB (73%)\n      Writing library : x264 core\n      colour_primaries : BT.601-6 525, BT.1358 525, BT.1700 NTSC, SMPTE 170M\n      transfer_characteristics : BT.709-5, BT.1361\n      matrix_coefficients : BT.601-6 525, BT.1358 525, BT.1700 NTSC, SMPTE 170M\n   Audio #2\n      ID : 2\n      Format : MPEG Audio\n      Format version : Version 1\n      Format profile : Layer 3\n      Codec ID : 6B\n      Duration : 1h 51mn\n      Bit rate mode : Constant\n      Bit rate : 320 Kbps\n      Channel(s) : 2 channels\n      Sampling rate : 48.0 KHz\n      Resolution : 16 bits\n      Stream size : 255 MiB (27%)\n      Writing library : LAME3.98.4\n\nCrocodile Dundee in Los Angeles 2001\n   Mick Dundee travels to the city of smog and stars with his young son in tow.\n\nI:MoviesMy RipsActionCrocodile Dundee 1-3CROCLACROCODILE_DUNDEE_3.mp4\n   General\n      Complete name : I:MoviesMy RipsActionCrocodile Dundee 1-3CROCLACROCODILE_DUNDEE_3.mp4\n      Format : MPEG-4\n      Format profile : Base Media\n      Codec ID : isom\n      File size : 801 MiB\n      Duration : 1h 34mn\n      Overall bit rate : 1 181 Kbps\n      Movie name : CROCODILE_DUNDEE_3\n      Album : CROCLA\n      Writing application : Lavf52.78.4\n   Video #1\n      ID : 1\n      Format : AVC\n      Format/Info : Advanced Video Codec\n      Format profile : &lt;a class=&quot;__cf_email__&quot; href=&quot;/cdn-cgi/l/email-protection&quot; data-cfemail=&quot;662b070f08262a554856&quot;&gt;[email&amp;#160;protected]&lt;/a&gt;&lt;script cf-hash='f9e31' type=&quot;text/javascript&quot;&gt;\n/* &lt;![CDATA[ */!function(){try{var t=&quot;currentScript&quot;in document?document.currentScript:function(){for(var t=document.getElementsByTagName(&quot;script&quot;),e=t.length;e--;)if(t[e].getAttribute(&quot;cf-hash&quot;))return t[e]}();if(t&amp;&amp;t.previousSibling){var e,r,n,i,c=t.previousSibling,a=c.getAttribute(&quot;data-cfemail&quot;);if(a){for(e=&quot;&quot;,r=parseInt(a.substr(0,2),16),n=2;a.length-n;n+=2)i=parseInt(a.substr(n,2),16)^r,e+=String.fromCharCode(i);e=document.createTextNode(e),c.parentNode.replaceChild(e,c)}}}catch(u){}}();/* ]]&gt; */&lt;/script&gt;\n      Format settings, CABAC : Yes\n      Format settings, ReFrames : 1 frame\n      Codec ID : avc1\n      Codec ID/Info : Advanced Video Coding\n      Duration : 1h 34mn\n      Bit rate mode : Variable\n      Bit rate : 858 Kbps\n      Width : 720 pixels\n      Height : 408 pixels\n      Display aspect ratio : 16:9\n      Frame rate mode : Constant\n      Frame rate : 23.976 fps\n      Resolution : 24 bits\n      Colorimetry : 4:2:0\n      Scan type : Progressive\n      Bits/(Pixel*Frame) : 0.122\n      Stream size : 582 MiB (73%)\n      Writing library : x264 core\n      colour_primaries : BT.601-6 525, BT.1358 525, BT.1700 NTSC, SMPTE 170M\n      transfer_characteristics : BT.709-5, BT.1361\n      matrix_coefficients : BT.601-6 525, BT.1358 525, BT.1700 NTSC, SMPTE 170M\n   Audio #2\n      ID : 2\n      Format : MPEG Audio\n      Format version : Version 1\n      Format profile : Layer 3\n      Codec ID : 6B\n      Duration : 1h 34mn\n      Bit rate mode : Constant\n      Bit rate : 320 Kbps\n      Channel(s) : 2 channels\n      Sampling rate : 48.0 KHz\n      Resolution : 16 bits\n      Stream size : 217 MiB (27%)\n      Writing library : LAME3.98.4\n\n\n\nMOre To COme Soon!\n\n\nTy \n\nG","torrent":{"xt":"urn:btih:bc0660a83e82f440ef5a0c7efe3bbcdffa8ec3b4","amp;dn":"Crocodile+Dundee+1-3","amp;tr":["udp%3A%2F%2Ftracker.openbittorrent.com%3A80","udp%3A%2F%2Fopen.demonii.com%3A1337","udp%3A%2F%2Ftracker.coppersurfer.tk%3A6969","udp%3A%2F%2Fexodus.desync.com%3A6969"],"infoHash":"bc0660a83e82f440ef5a0c7efe3bbcdffa8ec3b4","infoHashBuffer":{"type":"Buffer","data":[188,6,96,168,62,130,244,64,239,90,12,126,254,59,188,223,250,142,195,180]},"announce":[],"urlList":[]}}